<svg width="185" height="34" viewBox="0 0 185 34" fill="none" xmlns="http://www.w3.org/2000/svg">
<path d="M45.1473 8.52751H56.8353V11.2155H52.3233V25.9995H49.5393V11.2155H45.1473V8.52751ZM62.1757 26.2635C60.9757 26.2635 59.9517 26.0315 59.1037 25.5675C58.2557 25.1035 57.6077 24.4635 57.1597 23.6475C56.7117 22.8155 56.4877 21.8795 56.4877 20.8395C56.4877 19.8155 56.7437 18.8955 57.2557 18.0795C57.7677 17.2635 58.4557 16.6155 59.3197 16.1355C60.1997 15.6395 61.1677 15.3915 62.2237 15.3915C63.6157 15.3915 64.7597 15.7995 65.6557 16.6155C66.5677 17.4155 67.1757 18.5515 67.4797 20.0235L59.2957 22.7835L58.6717 21.2715L65.0557 18.9915L64.5037 19.3035C64.3277 18.8235 64.0397 18.4075 63.6397 18.0555C63.2557 17.7035 62.7117 17.5275 62.0077 17.5275C61.4477 17.5275 60.9517 17.6635 60.5197 17.9355C60.0877 18.1915 59.7437 18.5595 59.4877 19.0395C59.2477 19.5035 59.1277 20.0555 59.1277 20.6955C59.1277 21.3515 59.2637 21.9275 59.5357 22.4235C59.8077 22.9195 60.1757 23.3035 60.6397 23.5755C61.1037 23.8315 61.6317 23.9595 62.2237 23.9595C62.6397 23.9595 63.0397 23.8875 63.4237 23.7435C63.8077 23.5995 64.1677 23.4075 64.5037 23.1675L65.7277 25.1595C65.1997 25.4955 64.6157 25.7675 63.9757 25.9755C63.3517 26.1675 62.7517 26.2635 62.1757 26.2635ZM72.5486 15.8475L72.7886 18.0315L72.6926 17.7435C73.0446 17.0395 73.5646 16.4795 74.2526 16.0635C74.9566 15.6315 75.7886 15.4155 76.7486 15.4155C77.7086 15.4155 78.5006 15.6955 79.1246 16.2555C79.7486 16.8155 80.0686 17.5515 80.0846 18.4635V25.9995H77.3966V19.4235C77.3806 18.9115 77.2366 18.5035 76.9646 18.1995C76.6926 17.8795 76.2606 17.7115 75.6686 17.6955C75.1246 17.6955 74.6366 17.8635 74.2046 18.1995C73.7726 18.5195 73.4286 18.9675 73.1726 19.5435C72.9326 20.1035 72.8126 20.7515 72.8126 21.4875V25.9995H70.1246V15.8475H72.5486ZM87.9406 26.2635C86.9806 26.2635 86.1246 26.0395 85.3726 25.5915C84.6206 25.1435 84.0286 24.5035 83.5966 23.6715C83.1646 22.8395 82.9486 21.8715 82.9486 20.7675C82.9486 19.6315 83.1806 18.6635 83.6446 17.8635C84.1086 17.0635 84.7406 16.4555 85.5406 16.0395C86.3566 15.6075 87.2686 15.3915 88.2766 15.3915C89.0126 15.3915 89.7166 15.5355 90.3886 15.8235C91.0606 16.0955 91.5966 16.4955 91.9966 17.0235L91.9486 17.9355V7.27951H94.6126V25.9995H91.9246V23.7195L92.1886 24.3675C91.6766 24.9115 91.0606 25.3675 90.3406 25.7355C89.6366 26.0875 88.8366 26.2635 87.9406 26.2635ZM88.8046 23.9835C89.3326 23.9835 89.7966 23.8955 90.1966 23.7195C90.6126 23.5435 90.9646 23.2955 91.2526 22.9755C91.5566 22.6395 91.7806 22.2475 91.9246 21.7995V19.6395C91.7966 19.2235 91.5806 18.8555 91.2766 18.5355C90.9886 18.2155 90.6286 17.9675 90.1966 17.7915C89.7646 17.6155 89.3006 17.5275 88.8046 17.5275C88.2286 17.5275 87.7006 17.6635 87.2206 17.9355C86.7566 18.2075 86.3806 18.5835 86.0926 19.0635C85.8046 19.5435 85.6606 20.0955 85.6606 20.7195C85.6606 21.3275 85.8046 21.8795 86.0926 22.3755C86.3806 22.8715 86.7646 23.2635 87.2446 23.5515C87.7246 23.8395 88.2446 23.9835 88.8046 23.9835ZM103.168 26.2635C101.968 26.2635 100.944 26.0315 100.096 25.5675C99.2479 25.1035 98.5999 24.4635 98.1519 23.6475C97.7039 22.8155 97.4799 21.8795 97.4799 20.8395C97.4799 19.8155 97.7359 18.8955 98.2479 18.0795C98.7599 17.2635 99.4479 16.6155 100.312 16.1355C101.192 15.6395 102.16 15.3915 103.216 15.3915C104.608 15.3915 105.752 15.7995 106.648 16.6155C107.56 17.4155 108.168 18.5515 108.472 20.0235L100.288 22.7835L99.6639 21.2715L106.048 18.9915L105.496 19.3035C105.32 18.8235 105.032 18.4075 104.632 18.0555C104.248 17.7035 103.704 17.5275 103 17.5275C102.44 17.5275 101.944 17.6635 101.512 17.9355C101.08 18.1915 100.736 18.5595 100.48 19.0395C100.24 19.5035 100.12 20.0555 100.12 20.6955C100.12 21.3515 100.256 21.9275 100.528 22.4235C100.8 22.9195 101.168 23.3035 101.632 23.5755C102.096 23.8315 102.624 23.9595 103.216 23.9595C103.632 23.9595 104.032 23.8875 104.416 23.7435C104.8 23.5995 105.16 23.4075 105.496 23.1675L106.72 25.1595C106.192 25.4955 105.608 25.7675 104.968 25.9755C104.344 26.1675 103.744 26.2635 103.168 26.2635ZM113.541 15.8475L113.781 18.7275L113.685 18.3195C113.973 17.7115 114.365 17.1915 114.861 16.7595C115.373 16.3115 115.893 15.9755 116.421 15.7515C116.949 15.5115 117.381 15.3915 117.717 15.3915L117.597 18.0795C116.829 18.0155 116.157 18.1595 115.581 18.5115C115.021 18.8475 114.581 19.2955 114.261 19.8555C113.957 20.4155 113.805 21.0075 113.805 21.6315V25.9995H111.117V15.8475H113.541Z" fill="white"/>
<path d="M130.188 12.0795C129.564 11.7595 128.9 11.4875 128.196 11.2635C127.492 11.0235 126.82 10.9035 126.18 10.9035C125.316 10.9035 124.628 11.0955 124.116 11.4795C123.62 11.8635 123.372 12.3915 123.372 13.0635C123.372 13.5435 123.548 13.9675 123.9 14.3355C124.252 14.6875 124.7 14.9995 125.244 15.2715C125.788 15.5275 126.364 15.7755 126.972 16.0155C127.5 16.2075 128.02 16.4395 128.532 16.7115C129.06 16.9675 129.532 17.2875 129.948 17.6715C130.364 18.0555 130.692 18.5355 130.932 19.1115C131.188 19.6715 131.316 20.3675 131.316 21.1995C131.316 22.1115 131.084 22.9515 130.62 23.7195C130.156 24.4715 129.492 25.0715 128.628 25.5195C127.764 25.9675 126.708 26.1915 125.46 26.1915C124.74 26.1915 124.028 26.1115 123.324 25.9515C122.636 25.7915 121.98 25.5755 121.356 25.3035C120.732 25.0155 120.156 24.6955 119.628 24.3435L120.876 22.1595C121.26 22.4475 121.7 22.7115 122.196 22.9515C122.692 23.1915 123.204 23.3835 123.732 23.5275C124.26 23.6555 124.756 23.7195 125.22 23.7195C125.716 23.7195 126.204 23.6395 126.684 23.4795C127.18 23.3195 127.588 23.0555 127.908 22.6875C128.244 22.3195 128.412 21.8315 128.412 21.2235C128.412 20.7275 128.268 20.3035 127.98 19.9515C127.692 19.5995 127.316 19.2955 126.852 19.0395C126.404 18.7675 125.908 18.5275 125.364 18.3195C124.82 18.1115 124.26 17.8795 123.684 17.6235C123.124 17.3675 122.604 17.0555 122.124 16.6875C121.644 16.3035 121.252 15.8395 120.948 15.2955C120.644 14.7515 120.492 14.0795 120.492 13.2795C120.492 12.3195 120.716 11.4875 121.164 10.7835C121.612 10.0795 122.228 9.51951 123.012 9.10351C123.812 8.68751 124.732 8.46351 125.772 8.43151C127.004 8.43151 128.052 8.58351 128.916 8.88751C129.796 9.17551 130.572 9.52751 131.244 9.94351L130.188 12.0795ZM140.605 26.2635C139.901 26.2635 139.221 26.1115 138.565 25.8075C137.909 25.5035 137.381 25.0875 136.981 24.5595L137.125 23.7435V30.8715H134.437V15.6555H136.765L137.125 18.0075L136.885 17.2875C137.381 16.7435 137.981 16.2955 138.685 15.9435C139.405 15.5755 140.213 15.3915 141.109 15.3915C142.069 15.3915 142.925 15.6155 143.677 16.0635C144.429 16.5115 145.021 17.1515 145.453 17.9835C145.901 18.7995 146.125 19.7675 146.125 20.8875C146.125 22.0075 145.885 22.9675 145.405 23.7675C144.925 24.5675 144.269 25.1835 143.437 25.6155C142.605 26.0475 141.661 26.2635 140.605 26.2635ZM140.077 24.1275C140.669 24.1275 141.213 23.9915 141.709 23.7195C142.221 23.4475 142.629 23.0715 142.933 22.5915C143.237 22.0955 143.389 21.5435 143.389 20.9355C143.389 20.2955 143.245 19.7355 142.957 19.2555C142.685 18.7595 142.309 18.3755 141.829 18.1035C141.365 17.8155 140.845 17.6715 140.269 17.6715C139.741 17.6715 139.269 17.7595 138.853 17.9355C138.437 18.1115 138.085 18.3675 137.797 18.7035C137.509 19.0235 137.285 19.4075 137.125 19.8555V21.8955C137.237 22.3275 137.429 22.7115 137.701 23.0475C137.973 23.3835 138.317 23.6475 138.733 23.8395C139.149 24.0315 139.597 24.1275 140.077 24.1275ZM153.24 26.2635C152.28 26.2635 151.408 26.0635 150.624 25.6635C149.856 25.2635 149.248 24.6715 148.8 23.8875C148.352 23.0875 148.128 22.1035 148.128 20.9355C148.128 19.7835 148.36 18.7995 148.824 17.9835C149.304 17.1515 149.928 16.5115 150.696 16.0635C151.48 15.6155 152.328 15.3915 153.24 15.3915C154.216 15.3915 155 15.5835 155.592 15.9675C156.2 16.3515 156.672 16.8075 157.008 17.3355L156.864 17.7195L157.128 15.8475H159.6V25.9995H156.912V23.5275L157.176 24.1755C157.112 24.2715 156.984 24.4315 156.792 24.6555C156.6 24.8635 156.336 25.0955 156 25.3515C155.664 25.6075 155.264 25.8235 154.8 25.9995C154.352 26.1755 153.832 26.2635 153.24 26.2635ZM153.984 24.0555C154.464 24.0555 154.896 23.9675 155.28 23.7915C155.68 23.6155 156.016 23.3675 156.288 23.0475C156.576 22.7275 156.784 22.3435 156.912 21.8955V19.6875C156.784 19.2715 156.576 18.9115 156.288 18.6075C156 18.2875 155.648 18.0395 155.232 17.8635C154.832 17.6875 154.384 17.5995 153.888 17.5995C153.344 17.5995 152.84 17.7355 152.376 18.0075C151.912 18.2795 151.536 18.6555 151.248 19.1355C150.976 19.6155 150.84 20.1675 150.84 20.7915C150.84 21.3995 150.984 21.9515 151.272 22.4475C151.56 22.9435 151.944 23.3355 152.424 23.6235C152.904 23.9115 153.424 24.0555 153.984 24.0555ZM171.712 25.0635C171.264 25.4315 170.712 25.7275 170.056 25.9515C169.416 26.1595 168.768 26.2635 168.112 26.2635C166.992 26.2635 166.008 26.0475 165.16 25.6155C164.312 25.1675 163.648 24.5515 163.168 23.7675C162.704 22.9675 162.472 22.0155 162.472 20.9115C162.472 19.8075 162.72 18.8555 163.216 18.0555C163.728 17.2555 164.392 16.6475 165.208 16.2315C166.04 15.7995 166.92 15.5835 167.848 15.5835C168.696 15.5835 169.448 15.7035 170.104 15.9435C170.76 16.1675 171.328 16.4795 171.808 16.8795L170.464 18.6315C170.208 18.4235 169.872 18.2315 169.456 18.0555C169.056 17.8635 168.6 17.7675 168.088 17.7675C167.544 17.7675 167.048 17.9035 166.6 18.1755C166.168 18.4475 165.816 18.8235 165.544 19.3035C165.288 19.7675 165.16 20.3035 165.16 20.9115C165.16 21.4875 165.296 22.0155 165.568 22.4955C165.84 22.9755 166.216 23.3595 166.696 23.6475C167.176 23.9195 167.728 24.0555 168.352 24.0555C168.752 24.0555 169.12 23.9995 169.456 23.8875C169.808 23.7595 170.112 23.5915 170.368 23.3835L171.712 25.0635ZM179.316 26.2635C178.116 26.2635 177.092 26.0315 176.244 25.5675C175.396 25.1035 174.748 24.4635 174.3 23.6475C173.852 22.8155 173.628 21.8795 173.628 20.8395C173.628 19.8155 173.884 18.8955 174.396 18.0795C174.908 17.2635 175.596 16.6155 176.46 16.1355C177.34 15.6395 178.308 15.3915 179.364 15.3915C180.756 15.3915 181.9 15.7995 182.796 16.6155C183.708 17.4155 184.316 18.5515 184.62 20.0235L176.436 22.7835L175.812 21.2715L182.196 18.9915L181.644 19.3035C181.468 18.8235 181.18 18.4075 180.78 18.0555C180.396 17.7035 179.852 17.5275 179.148 17.5275C178.588 17.5275 178.092 17.6635 177.66 17.9355C177.228 18.1915 176.884 18.5595 176.628 19.0395C176.388 19.5035 176.268 20.0555 176.268 20.6955C176.268 21.3515 176.404 21.9275 176.676 22.4235C176.948 22.9195 177.316 23.3035 177.78 23.5755C178.244 23.8315 178.772 23.9595 179.364 23.9595C179.78 23.9595 180.18 23.8875 180.564 23.7435C180.948 23.5995 181.308 23.4075 181.644 23.1675L182.868 25.1595C182.34 25.4955 181.756 25.7675 181.116 25.9755C180.492 26.1675 179.892 26.2635 179.316 26.2635Z" fill="#F4F8FD"/>
<path d="M1.93222 16.8517L11.9911 10.9876C12.997 10.4012 14.0075 9.82407 15.0064 9.2237C15.1424 9.11855 15.3082 9.0586 15.4803 9.05234C15.6524 9.04607 15.8222 9.09382 15.9655 9.1888C20.2588 11.7066 24.5576 14.2159 28.8619 16.7167C28.9017 16.7423 28.9204 16.8005 28.9484 16.8447C28.8408 17.1635 28.5274 17.2379 28.2864 17.3799C24.2933 19.7185 20.2885 22.0339 16.2977 24.3888C15.769 24.7007 15.362 24.7565 14.7889 24.4191C10.7326 22.013 6.65054 19.6487 2.58021 17.2705C2.41412 17.1705 2.2527 17.0541 1.93222 16.8517Z" fill="#1F1C9B"/>
<path d="M20.5972 3.26655L0.844459 14.7806C0.0397499 15.246 0.00700581 15.2297 0.00232728 14.3152C0.00232728 12.9516 0.00232728 11.5856 0.00232728 10.222C0.00232728 9.03987 0.470185 8.21145 1.54157 7.61108C5.70079 5.267 9.83583 2.89189 13.9467 0.485761C15.0134 -0.135552 15.9936 -0.182087 17.0579 0.469477C18.272 1.21179 19.5306 1.88663 20.768 2.59171C21.3037 2.96636 20.7961 3.07806 20.5972 3.26655Z" fill="#FE873F"/>
<path d="M0.339188 18.683C0.538026 18.7924 0.743885 18.9018 0.942723 19.0181C4.81188 21.2753 8.67401 23.5418 12.5525 25.7804C13.121 26.1085 13.1607 26.3133 12.5853 26.6367C11.0671 27.4977 9.54422 28.3634 8.04943 29.2477C7.9044 29.3405 7.7339 29.3862 7.56161 29.3782C7.38932 29.3703 7.22377 29.3092 7.08798 29.2034C5.18225 28.0849 3.26562 26.9827 1.33806 25.8968C0.93185 25.6919 0.591798 25.3775 0.356821 24.9894C0.121844 24.6014 0.00143554 24.1553 0.00935708 23.7024C-0.0116963 22.2224 0.00935708 20.7424 0.00935708 19.2624C0.00701781 19.0297 -0.0795414 18.7133 0.339188 18.683Z" fill="#FE873F"/>
<path d="M30.9836 12.2325C30.9836 12.9562 30.9532 13.6846 30.9836 14.406C31.014 15.1273 30.7871 15.1343 30.2491 14.8178C27.548 13.2308 24.8391 11.6492 22.1225 10.0731C20.8897 9.35867 19.6615 8.63962 18.4264 7.93221C17.9141 7.639 17.8884 7.41561 18.4264 7.1131C19.9485 6.26607 21.462 5.40198 22.9669 4.52081C23.3599 4.28811 23.6687 4.37886 24.0219 4.57666C25.9074 5.67035 27.7905 6.76871 29.6853 7.83448C30.102 8.04901 30.4464 8.3801 30.6763 8.78696C30.9062 9.19382 31.0113 9.65867 30.9789 10.1243C30.9696 10.8387 30.9813 11.5344 30.9836 12.2325Z" fill="#FE873F"/>
<path d="M30.9813 19.5021C30.9813 18.5341 30.9602 18.5155 30.1017 19.0181C23.5611 22.8375 17.0205 26.6569 10.4799 30.4763C9.93954 30.7905 9.93954 30.972 10.4799 31.2698C11.8835 32.0494 13.266 32.8499 14.6579 33.6434C15.2474 34.1088 15.8275 34.1251 16.4146 33.6434C20.7984 31.1007 25.1822 28.5581 29.566 26.0154C30.5485 25.4476 31.0257 24.6611 31 23.5232C30.9602 22.1735 30.986 20.8402 30.9813 19.5021Z" fill="#FE873F"/>
</svg>
