<svg width="51" height="51" viewBox="0 0 51 51" fill="none" xmlns="http://www.w3.org/2000/svg">
<path d="M42.5 14.875H34V10.625L29.75 6.375H21.25L17 10.625V14.875H8.5C6.1625 14.875 4.25 16.7875 4.25 19.125V29.75C4.25 31.3438 5.1 32.6825 6.375 33.4262V40.375C6.375 42.7337 8.26625 44.625 10.625 44.625H40.375C42.7337 44.625 44.625 42.7337 44.625 40.375V33.405C45.8787 32.6613 46.75 31.3013 46.75 29.75V19.125C46.75 16.7875 44.8375 14.875 42.5 14.875ZM21.25 10.625H29.75V14.875H21.25V10.625ZM8.5 19.125H42.5V29.75H31.875V23.375H19.125V29.75H8.5V19.125ZM27.625 31.875H23.375V27.625H27.625V31.875ZM40.375 40.375H10.625V34H19.125V36.125H31.875V34H40.375V40.375Z" fill="url(#paint0_linear_29_376)"/>
<defs>
<linearGradient id="paint0_linear_29_376" x1="25.5" y1="6.375" x2="25.5" y2="44.625" gradientUnits="userSpaceOnUse">
<stop stop-color="#3356FF"/>
<stop offset="1" stop-color="#B52DFF"/>
</linearGradient>
</defs>
</svg>
