<svg width="50" height="50" viewBox="0 0 50 50" fill="none" xmlns="http://www.w3.org/2000/svg">
<path d="M45.3125 6.25H42.1875V3.75078C42.1875 2.54688 41.2828 1.5625 40.1797 1.5625H30.1297C29.0297 1.5625 28.125 2.54688 28.125 3.75078V6.25H9.32891L4.6875 15.625H7.91016V21.875H7.38828L4.78516 25L7.38828 28.125H7.95859V29.8031C7.95859 30.2273 8.28594 30.5703 8.69141 30.5703C9.90312 30.5703 10.8891 31.6047 10.8891 32.8758C10.8891 34.1469 9.90312 35.1813 8.69141 35.1813C7.47969 35.1813 6.49375 34.1469 6.49375 32.8758C6.49375 32.4516 6.16563 32.1086 5.76094 32.1086C5.35547 32.1086 5.02812 32.4516 5.02812 32.8758C5.02969 34.9961 6.67188 36.7188 8.69141 36.7188C10.7102 36.7188 12.3539 34.9961 12.3539 32.8766C12.3539 31.0211 11.0938 29.468 9.42422 29.1125V28.125H9.99375L12.5977 25L9.99375 21.875H9.47266V15.625H28.125V21.2492C28.125 22.2867 28.7977 23.1562 29.6875 23.3797V48.4375H31.7383V43.75L38.5742 46.0938L31.7383 48.4375H40.625V23.3789C41.5156 23.1562 42.1875 22.2867 42.1875 21.2492V15.625H45.3125V13.2812H43.6891L45.3125 10.1992V6.25ZM8.31484 13.2812L10.1398 9.53203L12.1133 13.2812H8.31484ZM11.7695 8.59375H15.0141L13.3922 11.6758L11.7695 8.59375ZM14.6711 13.2812L16.2938 10.1992L17.9172 13.2812H14.6711ZM17.5734 8.59375H20.818L19.1953 11.6758L17.5734 8.59375ZM20.4758 13.2812L22.0977 10.1992L23.7195 13.2812H20.4758ZM23.3773 8.59375H26.6219L25 11.6758L23.3773 8.59375ZM28.125 13.2812H26.2789L27.9008 10.1992L28.125 10.625V13.2812ZM38.5742 43.75L31.7383 41.4062L38.5742 39.0625V43.75ZM31.7383 39.0625V34.375L38.5742 36.7203L31.7383 39.0625ZM38.5742 34.375L31.7383 32.0312L38.5742 29.6875V34.375ZM31.7383 29.6875V25.0016L38.5742 27.3438L31.7383 29.6875ZM38.5742 25.0016L34.0156 23.4375H38.5742V25.0016ZM39.7461 11.9125C39.7461 12.6648 39.218 13.2812 38.5742 13.2812H31.5414C30.8977 13.2812 30.3711 12.6648 30.3711 11.9125V5.27969C30.3711 4.52266 30.8977 3.90625 31.5414 3.90625H38.5742C39.218 3.90625 39.7461 4.52266 39.7461 5.27969V11.9125ZM42.4102 11.6758L42.1875 11.2523V8.59375H44.032L42.4102 11.6758Z" fill="url(#paint0_linear_29_363)"/>
<defs>
<linearGradient id="paint0_linear_29_363" x1="5" y1="2" x2="25" y2="48.4375" gradientUnits="userSpaceOnUse">
<stop offset="0.0104454" stop-color="#3356FF"/>
<stop offset="1" stop-color="#B62DFF"/>
</linearGradient>
</defs>
</svg>
