<svg width="53" height="53" viewBox="0 0 53 53" fill="none" xmlns="http://www.w3.org/2000/svg">
<path d="M34.7812 23.1875C34.7812 22.7482 34.6068 22.327 34.2961 22.0164C33.9855 21.7057 33.5643 21.5312 33.125 21.5312C32.6857 21.5312 32.2645 21.7057 31.9539 22.0164C31.6432 22.327 31.4688 22.7482 31.4688 23.1875V28.1562C31.4688 28.5955 31.6432 29.0168 31.9539 29.3274C32.2645 29.638 32.6857 29.8125 33.125 29.8125C33.5643 29.8125 33.9855 29.638 34.2961 29.3274C34.6068 29.0168 34.7812 28.5955 34.7812 28.1562V23.1875ZM26.5 21.5312C26.9393 21.5312 27.3605 21.7057 27.6711 22.0164C27.9818 22.327 28.1562 22.7482 28.1562 23.1875V28.1562C28.1562 28.5955 27.9818 29.0168 27.6711 29.3274C27.3605 29.638 26.9393 29.8125 26.5 29.8125C26.0607 29.8125 25.6395 29.638 25.3289 29.3274C25.0182 29.0168 24.8438 28.5955 24.8438 28.1562V23.1875C24.8438 22.7482 25.0182 22.327 25.3289 22.0164C25.6395 21.7057 26.0607 21.5312 26.5 21.5312ZM21.5312 23.1875C21.5312 22.7482 21.3568 22.327 21.0461 22.0164C20.7355 21.7057 20.3143 21.5312 19.875 21.5312C19.4357 21.5312 19.0145 21.7057 18.7039 22.0164C18.3932 22.327 18.2188 22.7482 18.2188 23.1875V28.1562C18.2188 28.5955 18.3932 29.0168 18.7039 29.3274C19.0145 29.638 19.4357 29.8125 19.875 29.8125C20.3143 29.8125 20.7355 29.638 21.0461 29.3274C21.3568 29.0168 21.5312 28.5955 21.5312 28.1562V23.1875ZM13.25 33.125C13.6893 33.125 14.1105 33.2995 14.4211 33.6101C14.7318 33.9207 14.9062 34.342 14.9062 34.7812V39.75C14.9062 40.1893 14.7318 40.6105 14.4211 40.9211C14.1105 41.2318 13.6893 41.4062 13.25 41.4062C12.8107 41.4062 12.3895 41.2318 12.0789 40.9211C11.7682 40.6105 11.5938 40.1893 11.5938 39.75V34.7812C11.5938 34.342 11.7682 33.9207 12.0789 33.6101C12.3895 33.2995 12.8107 33.125 13.25 33.125ZM41.4062 34.7812C41.4062 34.342 41.2318 33.9207 40.9211 33.6101C40.6105 33.2995 40.1893 33.125 39.75 33.125C39.3107 33.125 38.8895 33.2995 38.5789 33.6101C38.2682 33.9207 38.0938 34.342 38.0938 34.7812V39.75C38.0938 40.1893 38.2682 40.6105 38.5789 40.9211C38.8895 41.2318 39.3107 41.4062 39.75 41.4062C40.1893 41.4062 40.6105 41.2318 40.9211 40.9211C41.2318 40.6105 41.4062 40.1893 41.4062 39.75V34.7812ZM26.5 3.3125H34.2297C34.8392 3.3125 35.3344 3.80606 35.3344 4.41722V8.83278C35.3344 9.12577 35.218 9.40676 35.0109 9.61394C34.8037 9.82111 34.5227 9.9375 34.2297 9.9375H28.1562V11.6848C31.8004 12.0923 35.1664 13.8286 37.6109 16.5617C40.0553 19.2949 41.4065 22.8332 41.4062 26.5H44.7188C46.0365 26.5 47.3004 27.0235 48.2322 27.9553C49.164 28.8871 49.6875 30.151 49.6875 31.4688V46.375C49.6875 46.8143 49.513 47.2355 49.2024 47.5461C48.8918 47.8568 48.4705 48.0312 48.0312 48.0312H4.96875C4.52949 48.0312 4.10821 47.8568 3.7976 47.5461C3.487 47.2355 3.3125 46.8143 3.3125 46.375V31.4688C3.3125 30.151 3.83599 28.8871 4.76781 27.9553C5.69963 27.0235 6.96346 26.5 8.28125 26.5H11.5938C11.5935 22.8332 12.9447 19.2949 15.3891 16.5617C17.8336 13.8286 21.1996 12.0923 24.8438 11.6848V4.96875C24.8438 4.52949 25.0182 4.10821 25.3289 3.7976C25.6395 3.487 26.0607 3.3125 26.5 3.3125ZM26.5 14.9062C23.4251 14.9062 20.4762 16.1277 18.302 18.302C16.1277 20.4762 14.9062 23.4251 14.9062 26.5V28.1562C14.9062 28.5955 14.7318 29.0168 14.4211 29.3274C14.1105 29.638 13.6893 29.8125 13.25 29.8125H8.28125C7.84199 29.8125 7.42071 29.987 7.1101 30.2976C6.7995 30.6082 6.625 31.0295 6.625 31.4688V44.7188H20.7031V39.75C20.7031 39.3107 20.8776 38.8895 21.1882 38.5789C21.4988 38.2682 21.9201 38.0938 22.3594 38.0938H30.6406C31.0799 38.0938 31.5012 38.2682 31.8118 38.5789C32.1224 38.8895 32.2969 39.3107 32.2969 39.75V44.7188H46.375V31.4688C46.375 31.0295 46.2005 30.6082 45.8899 30.2976C45.5793 29.987 45.158 29.8125 44.7188 29.8125H39.75C39.3107 29.8125 38.8895 29.638 38.5789 29.3274C38.2682 29.0168 38.0938 28.5955 38.0938 28.1562V26.5C38.0938 23.4251 36.8723 20.4762 34.698 18.302C32.5238 16.1277 29.5749 14.9062 26.5 14.9062ZM28.9844 41.4062H24.0156V44.7188H28.9844V41.4062Z" fill="url(#paint0_linear_29_365)"/>
<defs>
<linearGradient id="paint0_linear_29_365" x1="26.5" y1="3.3125" x2="26.5" y2="48.0312" gradientUnits="userSpaceOnUse">
<stop stop-color="#3256FF"/>
<stop offset="1" stop-color="#B62DFF"/>
</linearGradient>
</defs>
</svg>
