<svg width="51" height="51" viewBox="0 0 51 51" fill="none" xmlns="http://www.w3.org/2000/svg">
<g clip-path="url(#clip0_29_374)">
<path d="M45.4219 6.69372C44.8739 6.33921 44.2472 6.12474 43.5969 6.06916C42.9467 6.01358 42.2927 6.1186 41.6925 6.37497L22.0256 14.1206C21.56 14.3101 21.0621 14.4075 20.5594 14.4075H7.96875C6.91203 14.4075 5.89859 14.8273 5.15137 15.5745C4.40416 16.3217 3.98438 17.3351 3.98438 18.3918V18.7106H0V28.2731H3.98438V28.6875C4.00934 29.7275 4.44012 30.7166 5.18465 31.4432C5.92917 32.1699 6.92839 32.5765 7.96875 32.5762L12.75 42.7125C13.0738 43.3951 13.5835 43.9725 14.2206 44.3784C14.8577 44.7844 15.5964 45.0024 16.3519 45.0075H18.36C19.4112 44.9991 20.4165 44.5756 21.1568 43.8293C21.8971 43.083 22.3125 42.0743 22.3125 41.0231V32.9587L41.6925 40.7043C42.1692 40.894 42.6776 40.9914 43.1906 40.9912C43.9866 40.9784 44.7617 40.7348 45.4219 40.29C45.9461 39.936 46.3786 39.4623 46.6834 38.908C46.9883 38.3537 47.1568 37.7348 47.175 37.1025V9.97685C47.1721 9.32824 47.0109 8.69015 46.7053 8.118C46.3998 7.54585 45.9593 7.05694 45.4219 6.69372ZM18.3281 18.3918V28.6875H7.96875V18.3918H18.3281ZM18.3281 41.0231H16.32L12.3994 32.5762H18.3281V41.0231ZM23.4919 29.1656C23.1134 28.9722 22.7188 28.8122 22.3125 28.6875V18.1687C22.7149 18.0857 23.1095 17.9684 23.4919 17.8181L43.1906 9.97685V37.0068L23.4919 29.1656ZM47.2706 19.5075V27.4762C48.3273 27.4762 49.3408 27.0564 50.088 26.3092C50.8352 25.562 51.255 24.5486 51.255 23.4918C51.255 22.4351 50.8352 21.4217 50.088 20.6745C49.3408 19.9272 48.3273 19.5075 47.2706 19.5075Z" fill="url(#paint0_linear_29_374)"/>
</g>
<defs>
<linearGradient id="paint0_linear_29_374" x1="41.5" y1="-5.5" x2="25.6275" y2="45.0075" gradientUnits="userSpaceOnUse">
<stop stop-color="#3356FF"/>
<stop offset="1" stop-color="#B62DFF"/>
</linearGradient>
<clipPath id="clip0_29_374">
<rect width="51" height="51" fill="white"/>
</clipPath>
</defs>
</svg>
