<svg width="48" height="48" viewBox="0 0 48 48" fill="none" xmlns="http://www.w3.org/2000/svg">
<path d="M28 36.63C25.8062 35.5851 23.9204 33.99 22.526 32H6V8H42V12.528C43.6205 13.6645 44.9834 15.1297 46 16.828V8C45.9968 6.94011 45.5744 5.92453 44.8249 5.17507C44.0755 4.42561 43.0599 4.00317 42 4H6C4.94011 4.00317 3.92453 4.42561 3.17507 5.17507C2.42561 5.92453 2.00317 6.94011 2 8V32C2.00317 33.0599 2.42561 34.0755 3.17507 34.8249C3.92453 35.5744 4.94011 35.9968 6 36H20V40H16V44H32V40H28V36.63Z" fill="url(#paint0_linear_29_370)"/>
<path d="M34 12C31.6266 12 29.3066 12.7038 27.3332 14.0224C25.3598 15.3409 23.8217 17.2151 22.9135 19.4078C22.0052 21.6005 21.7676 24.0133 22.2306 26.3411C22.6936 28.6689 23.8365 30.8071 25.5147 32.4853C27.193 34.1635 29.3311 35.3064 31.6589 35.7694C33.9867 36.2324 36.3995 35.9948 38.5922 35.0866C40.7849 34.1783 42.6591 32.6402 43.9776 30.6668C45.2962 28.6935 46 26.3734 46 24C46.0005 22.424 45.6905 20.8633 45.0876 19.4072C44.4848 17.951 43.6009 16.628 42.4865 15.5135C41.372 14.3991 40.049 13.5152 38.5928 12.9124C37.1367 12.3095 35.576 11.9995 34 12ZM34 32C32.4178 32 30.871 31.5308 29.5554 30.6518C28.2399 29.7727 27.2145 28.5233 26.609 27.0615C26.0035 25.5997 25.845 23.9911 26.1537 22.4393C26.4624 20.8874 27.2243 19.462 28.3432 18.3431C29.462 17.2243 30.8874 16.4624 32.4393 16.1537C33.9911 15.845 35.5997 16.0035 37.0615 16.609C38.5233 17.2145 39.7727 18.2398 40.6518 19.5554C41.5308 20.871 42 22.4178 42 24C41.9974 26.1209 41.1537 28.1542 39.6539 29.6539C38.1542 31.1536 36.1209 31.9974 34 32Z" fill="url(#paint1_linear_29_370)"/>
<path d="M34 26C35.1046 26 36 25.1046 36 24C36 22.8954 35.1046 22 34 22C32.8954 22 32 22.8954 32 24C32 25.1046 32.8954 26 34 26Z" fill="url(#paint2_linear_29_370)"/>
<defs>
<linearGradient id="paint0_linear_29_370" x1="24" y1="4" x2="24" y2="44" gradientUnits="userSpaceOnUse">
<stop stop-color="#3356FF"/>
<stop offset="1" stop-color="#B62DFF"/>
</linearGradient>
<linearGradient id="paint1_linear_29_370" x1="34" y1="12" x2="34" y2="36" gradientUnits="userSpaceOnUse">
<stop stop-color="#3356FF"/>
<stop offset="1" stop-color="#B62DFF"/>
</linearGradient>
<linearGradient id="paint2_linear_29_370" x1="34" y1="22" x2="34" y2="26" gradientUnits="userSpaceOnUse">
<stop stop-color="#3356FF"/>
<stop offset="1" stop-color="#B62DFF"/>
</linearGradient>
</defs>
</svg>
