<svg width="31" height="34" viewBox="0 0 31 34" fill="none" xmlns="http://www.w3.org/2000/svg">
<path d="M1.93222 16.8517L11.9911 10.9876C12.997 10.4012 14.0075 9.82407 15.0064 9.2237C15.1424 9.11855 15.3082 9.0586 15.4803 9.05234C15.6524 9.04607 15.8222 9.09382 15.9655 9.1888C20.2588 11.7066 24.5576 14.2159 28.8619 16.7167C28.9017 16.7423 28.9204 16.8005 28.9484 16.8447C28.8408 17.1635 28.5274 17.2379 28.2864 17.3799C24.2933 19.7185 20.2885 22.0339 16.2977 24.3888C15.769 24.7007 15.362 24.7565 14.7889 24.4191C10.7326 22.013 6.65054 19.6487 2.58021 17.2705C2.41412 17.1705 2.2527 17.0541 1.93222 16.8517Z" fill="#4762F0"/>
<path d="M20.5972 3.26655L0.844459 14.7806C0.0397499 15.246 0.00700581 15.2297 0.00232728 14.3152C0.00232728 12.9516 0.00232728 11.5856 0.00232728 10.222C0.00232728 9.03987 0.470185 8.21145 1.54157 7.61108C5.70079 5.267 9.83583 2.89189 13.9467 0.485761C15.0134 -0.135552 15.9936 -0.182087 17.0579 0.469477C18.272 1.21179 19.5306 1.88663 20.768 2.59171C21.3037 2.96636 20.7961 3.07806 20.5972 3.26655Z" fill="#FE873F"/>
<path d="M0.339188 18.683C0.538026 18.7924 0.743885 18.9018 0.942723 19.0181C4.81188 21.2753 8.67401 23.5418 12.5525 25.7804C13.121 26.1085 13.1607 26.3133 12.5853 26.6367C11.0671 27.4977 9.54422 28.3634 8.04943 29.2477C7.9044 29.3405 7.7339 29.3862 7.56161 29.3782C7.38932 29.3703 7.22377 29.3092 7.08798 29.2034C5.18225 28.0849 3.26562 26.9827 1.33806 25.8968C0.93185 25.6919 0.591798 25.3775 0.356821 24.9894C0.121844 24.6014 0.00143554 24.1553 0.00935708 23.7024C-0.0116963 22.2224 0.00935708 20.7424 0.00935708 19.2624C0.00701781 19.0297 -0.0795414 18.7133 0.339188 18.683Z" fill="#FE873F"/>
<path d="M30.9836 12.2325C30.9836 12.9562 30.9532 13.6846 30.9836 14.406C31.014 15.1273 30.7871 15.1343 30.2491 14.8178C27.548 13.2308 24.8391 11.6492 22.1225 10.0731C20.8897 9.35867 19.6615 8.63962 18.4264 7.93221C17.9141 7.639 17.8884 7.41561 18.4264 7.1131C19.9485 6.26607 21.462 5.40198 22.9669 4.52081C23.3599 4.28811 23.6687 4.37886 24.0219 4.57666C25.9074 5.67035 27.7905 6.76871 29.6853 7.83448C30.102 8.04901 30.4465 8.3801 30.6763 8.78696C30.9062 9.19381 31.0113 9.65867 30.9789 10.1243C30.9696 10.8387 30.9813 11.5344 30.9836 12.2325Z" fill="#FE873F"/>
<path d="M30.9813 19.5021C30.9813 18.5341 30.9602 18.5155 30.1017 19.0181C23.5611 22.8375 17.0205 26.6569 10.4799 30.4763C9.93954 30.7905 9.93954 30.972 10.4799 31.2698C11.8835 32.0494 13.266 32.8499 14.6579 33.6434C15.2474 34.1088 15.8275 34.1251 16.4146 33.6434C20.7984 31.1007 25.1822 28.5581 29.566 26.0154C30.5485 25.4476 31.0257 24.6611 31 23.5232C30.9602 22.1735 30.986 20.8402 30.9813 19.5021Z" fill="#FE873F"/>
</svg>
